<mxfile host="app.diagrams.net" modified="2020-12-11T10:58:03.271Z" agent="5.0 (Macintosh; Intel Mac OS X 10_15_6) AppleWebKit/537.36 (KHTML, like Gecko) Chrome/87.0.4280.88 Safari/537.36" etag="ym_KfCe_jXlj4OMpvbi4" version="13.10.4" type="github">
  <diagram id="tRXt1ORvOD2f7DEVa8gd" name="第 1 页">
    <mxGraphModel dx="946" dy="623" grid="1" gridSize="10" guides="1" tooltips="1" connect="1" arrows="1" fold="1" page="1" pageScale="1" pageWidth="827" pageHeight="1169" math="0" shadow="0">
      <root>
        <mxCell id="0" />
        <mxCell id="1" parent="0" />
        <mxCell id="RdrqwunWAACrDsXx0hAS-4" value="" style="shape=curlyBracket;whiteSpace=wrap;html=1;rounded=1;flipH=1;" vertex="1" parent="1">
          <mxGeometry x="380" y="180" width="20" height="190" as="geometry" />
        </mxCell>
        <mxCell id="RdrqwunWAACrDsXx0hAS-1" value="LEMO CORE" style="rounded=0;whiteSpace=wrap;html=1;" vertex="1" parent="1">
          <mxGeometry x="180" y="180" width="180" height="50" as="geometry" />
        </mxCell>
        <mxCell id="RdrqwunWAACrDsXx0hAS-2" value="RF PDA" style="rounded=0;whiteSpace=wrap;html=1;" vertex="1" parent="1">
          <mxGeometry x="180" y="250" width="180" height="50" as="geometry" />
        </mxCell>
        <mxCell id="RdrqwunWAACrDsXx0hAS-3" value="LEMO PDA" style="rounded=0;whiteSpace=wrap;html=1;" vertex="1" parent="1">
          <mxGeometry x="180" y="320" width="180" height="50" as="geometry" />
        </mxCell>
        <mxCell id="RdrqwunWAACrDsXx0hAS-7" value="IoT小程序" style="rounded=0;whiteSpace=wrap;html=1;" vertex="1" parent="1">
          <mxGeometry x="430" y="180" width="70" height="190" as="geometry" />
        </mxCell>
        <mxCell id="RdrqwunWAACrDsXx0hAS-8" value="业务应用" style="rounded=0;whiteSpace=wrap;html=1;" vertex="1" parent="1">
          <mxGeometry x="524" y="180" width="70" height="190" as="geometry" />
        </mxCell>
        <mxCell id="RdrqwunWAACrDsXx0hAS-9" value="1. 现在LEMO PDA的所有应用可以直接覆盖到 RF PDA 中" style="text;html=1;align=left;verticalAlign=middle;resizable=0;points=[];autosize=1;" vertex="1" parent="1">
          <mxGeometry x="180" y="420" width="320" height="20" as="geometry" />
        </mxCell>
        <mxCell id="RdrqwunWAACrDsXx0hAS-10" value="2. IoT前端团队负责统一技术方案，业务团队负责完成业务" style="text;html=1;align=left;verticalAlign=middle;resizable=0;points=[];autosize=1;" vertex="1" parent="1">
          <mxGeometry x="180" y="450" width="320" height="20" as="geometry" />
        </mxCell>
      </root>
    </mxGraphModel>
  </diagram>
</mxfile>
